HIERARCHY
ROOT Hips
{
	OFFSET 0.000000 83.214638 0.000000
	CHANNELS 6 Xposition Yposition Zposition Xrotation Yrotation Zrotation
	JOINT Pelvis
	{
		OFFSET 0.000000 0.000000 0.000000
		CHANNELS 3 Xrotation Yrotation Zrotation
		JOINT LeftUpLeg
		{
			OFFSET 8.479700 -4.795502 -0.379100
			CHANNELS 3 Xrotation Yrotation Zrotation
			JOINT LeftLeg
			{
				OFFSET 0.024144 -32.555107 0.112900
				CHANNELS 3 Xrotation Yrotation Zrotation
				JOINT LeftFoot
				{
					OFFSET -0.024144 -32.638630 -3.012600
					CHANNELS 3 Xrotation Yrotation Zrotation
					JOINT LeftToeBase
					{
						OFFSET 0.970200 -13.225400 11.864200
						CHANNELS 3 Xrotation Yrotation Zrotation
						End Site
						{
							OFFSET 0.000000 12.319262 0.000000
						}
					}
					JOINT LFootTongue
					{
						OFFSET 1.142400 -1.059800 6.665200
						CHANNELS 3 Xrotation Yrotation Zrotation
						End Site
						{
							OFFSET 0.000000 12.319262 0.000000
						}
					}
				}
				JOINT LeftPantLeg
				{
					OFFSET 0.918482 -16.533964 -2.284700
					CHANNELS 3 Xrotation Yrotation Zrotation
					End Site
					{
						OFFSET 0.350399 24.744368 0.000000
					}
				}
			}
		}
		JOINT RightUpLeg
		{
			OFFSET -8.479700 -4.795502 -0.379100
			CHANNELS 3 Xrotation Yrotation Zrotation
			JOINT RightLeg
			{
				OFFSET -0.023144 -32.555092 0.112900
				CHANNELS 3 Xrotation Yrotation Zrotation
				JOINT RightFoot
				{
					OFFSET 0.023144 -32.638641 -3.012700
					CHANNELS 3 Xrotation Yrotation Zrotation
					JOINT RightToeBase
					{
						OFFSET -0.970200 -13.225400 11.864200
						CHANNELS 3 Xrotation Yrotation Zrotation
						End Site
						{
							OFFSET 0.000000 12.319244 0.000000
						}
					}
					JOINT RFootTongue
					{
						OFFSET -1.142200 -1.059800 6.665200
						CHANNELS 3 Xrotation Yrotation Zrotation
						End Site
						{
							OFFSET 0.000000 12.319243 0.000000
						}
					}
				}
				JOINT RightPantLeg
				{
					OFFSET -0.919482 -16.533978 -2.284800
					CHANNELS 3 Xrotation Yrotation Zrotation
					End Site
					{
						OFFSET -0.350400 24.744419 0.000000
					}
				}
			}
		}
	}
	JOINT Spine
	{
		OFFSET 0.000000 7.722000 1.166200
		CHANNELS 3 Xrotation Yrotation Zrotation
		JOINT Spine1
		{
			OFFSET 0.000000 12.024101 0.248800
			CHANNELS 3 Xrotation Yrotation Zrotation
			JOINT Spine2
			{
				OFFSET 0.000000 11.502998 -0.491200
				CHANNELS 3 Xrotation Yrotation Zrotation
				JOINT Neck
				{
					OFFSET 0.000000 18.430702 -3.123100
					CHANNELS 3 Xrotation Yrotation Zrotation
					JOINT Head
					{
						OFFSET 0.000000 9.051102 1.034000
						CHANNELS 3 Xrotation Yrotation Zrotation
						JOINT HairB
						{
							OFFSET 0.208400 24.786102 24.822300
							CHANNELS 3 Xrotation Yrotation Zrotation
							End Site
							{
								OFFSET 0.000000 32.263779 0.000000
							}
						}
						JOINT HairA
						{
							OFFSET -7.081100 24.428299 23.196600
							CHANNELS 3 Xrotation Yrotation Zrotation
							End Site
							{
								OFFSET 0.000000 32.263779 0.000000
							}
						}
						JOINT Hat
						{
							OFFSET 16.728800 15.048294 -15.439601
							CHANNELS 3 Xrotation Yrotation Zrotation
							End Site
							{
								OFFSET 0.000000 32.263779 0.000000
							}
						}
					}
				}
				JOINT LeftShoulder
				{
					OFFSET 6.197800 13.665199 -4.064700
					CHANNELS 3 Xrotation Yrotation Zrotation
					JOINT LeftArm
					{
						OFFSET 7.778100 -0.187103 -1.709300
						CHANNELS 3 Xrotation Yrotation Zrotation
						JOINT LeftForeArm
						{
							OFFSET 22.049376 0.000000 0.000000
							CHANNELS 3 Xrotation Yrotation Zrotation
							JOINT LeftHand
							{
								OFFSET 23.009392 0.000000 0.000000
								CHANNELS 3 Xrotation Yrotation Zrotation
								JOINT LeftHandThumb1
								{
									OFFSET 3.507191 -2.063065 3.133727
									CHANNELS 3 Xrotation Yrotation Zrotation
									JOINT LeftHandThumb2
									{
										OFFSET 3.101337 -1.790558 1.790558
										CHANNELS 3 Xrotation Yrotation Zrotation
										JOINT LeftHandThumb3
										{
											OFFSET 3.058640 -1.765907 1.765906
											CHANNELS 3 Xrotation Yrotation Zrotation
											End Site
											{
												OFFSET -0.415260 3.926476 -0.049563
											}
										}
									}
								}
								JOINT LeftHandIndex1
								{
									OFFSET 11.334419 -0.901459 3.706815
									CHANNELS 3 Xrotation Yrotation Zrotation
									JOINT LeftHandIndex2
									{
										OFFSET 3.283112 0.000000 0.000000
										CHANNELS 3 Xrotation Yrotation Zrotation
										JOINT LeftHandIndex3
										{
											OFFSET 3.323853 0.000000 0.000000
											CHANNELS 3 Xrotation Yrotation Zrotation
											End Site
											{
												OFFSET -1.135597 3.097809 0.402452
											}
										}
									}
								}
								JOINT LeftHandMiddle1
								{
									OFFSET 11.335861 0.000000 0.000000
									CHANNELS 3 Xrotation Yrotation Zrotation
									JOINT LeftHandMiddle2
									{
										OFFSET 3.410492 0.000000 0.000000
										CHANNELS 3 Xrotation Yrotation Zrotation
										JOINT LeftHandMiddle3
										{
											OFFSET 3.312172 0.000000 0.000000
											CHANNELS 3 Xrotation Yrotation Zrotation
											End Site
											{
												OFFSET -1.150200 3.080154 0.400270
											}
										}
									}
								}
								JOINT LeftHandRing1
								{
									OFFSET 11.514786 -0.013176 -3.003090
									CHANNELS 3 Xrotation Yrotation Zrotation
									JOINT LeftHandRing2
									{
										OFFSET 3.053307 0.000000 0.000000
										CHANNELS 3 Xrotation Yrotation Zrotation
										JOINT LeftHandRing3
										{
											OFFSET 3.295807 0.000000 0.000000
											CHANNELS 3 Xrotation Yrotation Zrotation
											End Site
											{
												OFFSET -1.281006 3.013344 0.375733
											}
										}
									}
								}
								JOINT LeftHandPinky1
								{
									OFFSET 10.518692 -0.960396 -5.730441
									CHANNELS 3 Xrotation Yrotation Zrotation
									JOINT LeftHandPinky2
									{
										OFFSET 2.861649 0.000000 0.000000
										CHANNELS 3 Xrotation Yrotation Zrotation
										JOINT LeftHandPinky3
										{
											OFFSET 2.863380 0.000000 0.000000
											CHANNELS 3 Xrotation Yrotation Zrotation
											End Site
											{
												OFFSET -0.843597 2.711159 0.369971
											}
										}
									}
								}
							}
							JOINT LSleeve
							{
								OFFSET 6.676277 -0.344902 -1.011730
								CHANNELS 3 Xrotation Yrotation Zrotation
								End Site
								{
									OFFSET 0.000000 14.885353 0.000000
								}
							}
						}
					}
				}
				JOINT RightShoulder
				{
					OFFSET -6.197800 13.665199 -4.064700
					CHANNELS 3 Xrotation Yrotation Zrotation
					JOINT RightArm
					{
						OFFSET -7.778100 -0.187103 -1.709300
						CHANNELS 3 Xrotation Yrotation Zrotation
						JOINT RightForeArm
						{
							OFFSET -22.049376 0.000000 0.000000
							CHANNELS 3 Xrotation Yrotation Zrotation
							JOINT RightHand
							{
								OFFSET -23.009392 0.000000 0.000000
								CHANNELS 3 Xrotation Yrotation Zrotation
								JOINT RightHandThumb1
								{
									OFFSET -3.507191 -2.063065 3.133727
									CHANNELS 3 Xrotation Yrotation Zrotation
									JOINT RightHandThumb2
									{
										OFFSET -3.101337 -1.790558 1.790558
										CHANNELS 3 Xrotation Yrotation Zrotation
										JOINT RightHandThumb3
										{
											OFFSET -3.058640 -1.765907 1.765906
											CHANNELS 3 Xrotation Yrotation Zrotation
											End Site
											{
												OFFSET 0.415260 3.926476 -0.049563
											}
										}
									}
								}
								JOINT RightHandIndex1
								{
									OFFSET -11.334419 -0.901459 3.706815
									CHANNELS 3 Xrotation Yrotation Zrotation
									JOINT RightHandIndex2
									{
										OFFSET -3.283112 0.000000 0.000000
										CHANNELS 3 Xrotation Yrotation Zrotation
										JOINT RightHandIndex3
										{
											OFFSET -3.323853 0.000000 0.000000
											CHANNELS 3 Xrotation Yrotation Zrotation
											End Site
											{
												OFFSET 1.135597 3.097809 0.402452
											}
										}
									}
								}
								JOINT RightHandMiddle1
								{
									OFFSET -11.335861 0.000000 0.000000
									CHANNELS 3 Xrotation Yrotation Zrotation
									JOINT RightHandMiddle2
									{
										OFFSET -3.410492 0.000000 0.000000
										CHANNELS 3 Xrotation Yrotation Zrotation
										JOINT RightHandMiddle3
										{
											OFFSET -3.312172 0.000000 0.000000
											CHANNELS 3 Xrotation Yrotation Zrotation
											End Site
											{
												OFFSET 1.150200 3.080154 0.400270
											}
										}
									}
								}
								JOINT RightHandRing1
								{
									OFFSET -11.514786 -0.013176 -3.003090
									CHANNELS 3 Xrotation Yrotation Zrotation
									JOINT RightHandRing2
									{
										OFFSET -3.053307 0.000000 0.000000
										CHANNELS 3 Xrotation Yrotation Zrotation
										JOINT RightHandRing3
										{
											OFFSET -3.295807 0.000000 0.000000
											CHANNELS 3 Xrotation Yrotation Zrotation
											End Site
											{
												OFFSET 1.281006 3.013344 0.375733
											}
										}
									}
								}
								JOINT RightHandPinky1
								{
									OFFSET -10.518692 -0.960396 -5.730441
									CHANNELS 3 Xrotation Yrotation Zrotation
									JOINT RightHandPinky2
									{
										OFFSET -2.861649 0.000000 0.000000
										CHANNELS 3 Xrotation Yrotation Zrotation
										JOINT RightHandPinky3
										{
											OFFSET -2.863380 0.000000 0.000000
											CHANNELS 3 Xrotation Yrotation Zrotation
											End Site
											{
												OFFSET 0.843597 2.711159 0.369971
											}
										}
									}
								}
							}
							JOINT RSleeve
							{
								OFFSET -6.676277 -0.344902 -1.011730
								CHANNELS 3 Xrotation Yrotation Zrotation
								End Site
								{
									OFFSET 0.000000 14.885353 0.000000
								}
							}
						}
					}
				}
				JOINT Backpack
				{
					OFFSET 0.000000 -2.471497 36.677502
					CHANNELS 3 Xrotation Yrotation Zrotation
					End Site
					{
						OFFSET 0.000000 20.427315 0.000000
					}
				}
				JOINT Hood
				{
					OFFSET 0.000000 18.754097 -10.431000
					CHANNELS 3 Xrotation Yrotation Zrotation
					JOINT Hood1
					{
						OFFSET 0.000000 -5.011002 -7.685901
						CHANNELS 3 Xrotation Yrotation Zrotation
						End Site
						{
							OFFSET 0.000000 9.175140 0.000000
						}
					}
				}
				JOINT LHoodieString
				{
					OFFSET 5.250500 16.397697 3.089900
					CHANNELS 3 Xrotation Yrotation Zrotation
					JOINT LHoodieString1
					{
						OFFSET 0.257700 -6.364304 3.694600
						CHANNELS 3 Xrotation Yrotation Zrotation
						JOINT LHoodieString2
						{
							OFFSET 0.000000 -9.643799 2.679100
							CHANNELS 3 Xrotation Yrotation Zrotation
							End Site
							{
								OFFSET 0.000000 10.009018 0.000000
							}
						}
					}
				}
				JOINT RHoodieString
				{
					OFFSET -5.250500 16.397697 3.089900
					CHANNELS 3 Xrotation Yrotation Zrotation
					JOINT RHoodieString1
					{
						OFFSET -0.257700 -6.364304 3.694600
						CHANNELS 3 Xrotation Yrotation Zrotation
						JOINT RHoodieString2
						{
							OFFSET 0.000000 -9.643799 2.679100
							CHANNELS 3 Xrotation Yrotation Zrotation
							End Site
							{
								OFFSET 0.000000 10.009018 0.000000
							}
						}
					}
				}
			}
			JOINT LBackpack_Strap
			{
				OFFSET 15.223200 -7.719803 -6.610900
				CHANNELS 3 Xrotation Yrotation Zrotation
				End Site
				{
					OFFSET 0.000000 16.040596 0.000000
				}
			}
			JOINT RBackpack_Strap
			{
				OFFSET -15.223000 -7.719803 -6.610900
				CHANNELS 3 Xrotation Yrotation Zrotation
				End Site
				{
					OFFSET 0.000000 16.040596 0.000000
				}
			}
		}
	}
	JOINT BoyFacialAnim_Joint
	{
		OFFSET 1.000000 -82.208099 -1.550900
		CHANNELS 3 Xrotation Yrotation Zrotation
		End Site
		{
			OFFSET 0.000000 30.012791 0.000000
		}
	}
}
MOTION
Frames: 4
Frame Time: 0.016667
-0.317678 81.142883 9.455395 4.071185 36.474013 -2.716010 -0.000000 0.000001 0.000000 -24.241586 6.121096 5.883528 22.400275 -35.622742 -5.179343 -6.856361 -6.512051 3.174378 -0.000001 0.000000 0.000000 -0.000001 0.000000 0.000000 -0.000000 -0.000001 -0.000000 -13.870256 14.793917 -0.320888 22.856706 12.558011 1.080497 -12.477244 2.718610 -0.598916 -0.000000 -0.000002 0.000000 -0.000000 -0.000002 0.000000 0.000000 0.000001 -0.000001 7.113186 0.518675 -2.474306 1.179942 0.647725 1.438048 1.171144 0.823292 1.416788 -1.447715 25.849746 -8.284149 -8.495193 20.302447 -2.010672 0.000000 0.000000 -0.000000 0.000000 0.000000 -0.000000 0.000000 0.000000 -0.000000 -0.063462 -2.703544 -0.486094 -58.743827 21.372251 -22.798862 10.391411 -75.898367 11.787415 -50.033909 13.093962 4.982027 17.538847 -5.734667 -12.929162 10.855128 26.140252 8.645409 0.000001 -0.000000 -0.000000 13.990907 1.412567 -54.992028 0.369647 1.160692 -65.362561 -0.000001 0.000000 -0.000002 7.444402 1.211164 -63.725563 1.805191 1.477045 -64.469459 -0.000000 0.000001 -0.000001 8.572775 2.194672 -75.055747 -0.208484 1.006757 -57.746401 -0.000002 0.000001 -0.000000 10.012755 13.637204 -84.737642 0.876235 0.062068 -64.553914 0.000001 0.000001 0.000002 -0.000001 -0.000000 0.000000 4.836699 8.975262 6.727821 10.740036 17.144878 61.498409 10.869386 22.267122 -5.100412 -0.366004 5.346423 5.429065 15.788513 -2.734473 -17.205856 -1.822777 -31.650837 7.412938 0.000001 0.000002 0.000002 2.375262 -3.654547 13.539318 -2.144074 -2.475455 24.342721 -0.000000 -0.000001 0.000005 -1.975838 -5.709690 18.810601 0.284023 -5.102720 32.657580 0.000001 0.000000 -0.000002 -3.263385 -8.564391 16.917269 4.034718 -4.065638 38.932314 -0.000002 -0.000000 0.000002 -6.473119 -11.350203 28.409161 10.721036 -2.560817 40.492411 0.000000 -0.000001 0.000004 -0.000001 0.000000 -0.000000 -0.000001 -0.000003 0.000001 -0.000001 -0.000003 0.000001 -0.000001 -0.000003 0.000001 -0.000001 -0.000003 0.000001 -0.000001 -0.000003 0.000001 -0.000002 -0.000001 -0.000000 -0.000001 -0.000003 0.000001 -0.000001 -0.000003 0.000001 -0.000002 -0.000001 -0.000000 -0.000000 -0.000002 0.000000 -0.000000 -0.000002 0.000000 -0.000000 0.000001 0.000000 
-0.957914 81.204865 9.766994 4.329317 39.294556 -3.159460 0.000000 0.000001 -0.000000 -24.742645 6.426758 6.558790 21.615006 -39.025669 -5.433524 -7.206358 -4.546365 2.670183 0.000000 -0.000000 0.000000 0.000000 -0.000000 0.000000 -0.000000 0.000000 0.000000 -13.581316 13.900655 0.417997 22.539286 11.480373 0.989892 -12.328531 1.638597 -1.100377 0.000000 -0.000001 0.000000 0.000000 -0.000001 0.000000 0.000001 -0.000000 0.000000 7.214440 0.388124 -2.676185 1.139005 0.472311 1.508125 1.129819 0.657998 1.495976 -1.497328 24.861774 -8.282023 -9.017807 19.238488 -1.161759 0.000000 0.000000 -0.000000 0.000000 0.000000 -0.000000 0.000000 0.000000 -0.000000 -0.098273 -4.304835 -0.130151 -58.723467 20.289169 -23.609847 9.881796 -75.007075 11.444847 -50.003364 13.081693 4.645799 17.538845 -5.734751 -12.929150 10.856126 26.143003 8.645544 0.000004 -0.000001 0.000001 13.990638 1.416745 -54.990136 0.369596 1.160656 -65.359371 -0.000002 -0.000001 -0.000004 7.443688 1.211651 -63.724579 1.805149 1.477050 -64.467949 0.000001 -0.000001 -0.000000 8.572803 2.194712 -75.057584 -0.208456 1.006798 -57.748163 -0.000003 -0.000002 -0.000002 10.014141 13.637193 -84.738605 0.876272 0.062083 -64.556079 0.000001 0.000001 -0.000000 -0.000002 0.000000 -0.000002 4.845235 8.887827 6.669459 9.629283 15.060101 62.090265 10.941258 22.517810 -5.122134 -0.392310 5.635257 5.539876 15.788515 -2.734473 -17.205858 -1.914294 -31.520152 7.399895 0.000000 0.000002 0.000001 2.374033 -3.654722 14.015412 -2.143513 -2.475490 24.691631 -0.000001 -0.000000 0.000005 -1.975736 -5.709858 19.281534 0.284156 -5.104054 33.006483 0.000001 -0.000000 0.000005 -3.264507 -8.564588 17.387997 4.034666 -4.065554 39.281173 -0.000001 -0.000001 0.000004 -6.473059 -11.350433 28.880055 10.721157 -2.560957 40.841266 0.000000 -0.000000 0.000000 -0.000001 -0.000000 -0.000001 0.000000 0.000001 -0.000000 0.000000 0.000001 -0.000000 0.000000 0.000001 -0.000000 0.000000 0.000001 -0.000000 0.000000 0.000001 -0.000000 -0.000000 0.000003 -0.000001 0.000000 0.000001 -0.000000 0.000000 0.000001 -0.000000 -0.000000 0.000003 -0.000001 -0.000000 0.000002 -0.000000 -0.000000 0.000002 -0.000000 0.000000 0.000001 -0.000000 
-1.585103 81.234207 9.989959 4.730910 41.588257 -3.778312 -0.000000 -0.000001 0.000000 -25.330648 7.141364 7.582348 21.268565 -37.825472 -5.096506 -7.316891 -4.754037 1.480865 0.000000 0.000000 0.000000 0.000000 0.000000 0.000000 0.000000 -0.000001 -0.000000 -13.653914 13.178353 1.221735 22.306044 10.173560 0.881732 -12.108041 1.122792 -1.398090 0.000000 0.000001 -0.000000 0.000000 0.000001 -0.000000 0.000001 0.000000 -0.000000 7.288919 0.341893 -2.803468 1.074961 0.409439 1.547331 1.065683 0.600865 1.538320 -1.669404 23.934931 -8.054801 -9.247519 18.341336 -0.647392 0.000000 0.000000 0.000000 0.000000 0.000000 0.000000 0.000000 0.000000 0.000000 -0.137372 -5.857311 0.179678 -58.765124 19.401612 -24.164861 9.711187 -74.412958 11.444997 -50.015956 13.301354 4.477763 17.538783 -5.734846 -12.929142 10.857149 26.145771 8.645660 0.000001 0.000000 -0.000001 13.990314 1.420904 -54.988289 0.369538 1.160625 -65.356263 0.000000 -0.000000 -0.000000 7.442974 1.212109 -63.723616 1.805116 1.477051 -64.466440 0.000001 0.000000 -0.000003 8.572814 2.194754 -75.059455 -0.208422 1.006847 -57.749885 -0.000001 -0.000000 -0.000002 10.015509 13.637186 -84.739589 0.876312 0.062089 -64.557732 0.000000 -0.000000 0.000005 0.000000 0.000003 0.000001 4.849105 8.873606 6.578577 8.499936 12.815154 62.567347 10.948446 22.781411 -5.092081 -0.404710 5.981674 5.562209 15.788515 -2.734473 -17.205860 -1.995389 -31.404148 7.388577 -0.000002 0.000000 -0.000000 2.372859 -3.654841 14.485520 -2.142886 -2.475703 25.045064 -0.000000 -0.000001 0.000005 -1.975686 -5.710065 19.743912 0.284324 -5.105393 33.359802 -0.000001 0.000001 -0.000002 -3.265552 -8.564766 17.850242 4.034650 -4.066043 39.634519 -0.000002 -0.000001 -0.000001 -6.472937 -11.350340 29.342558 10.721316 -2.561109 41.194688 0.000001 -0.000001 0.000004 -0.000001 0.000000 0.000000 0.000000 -0.000001 0.000000 0.000000 -0.000001 0.000000 0.000000 -0.000001 0.000000 0.000000 -0.000001 0.000000 0.000000 -0.000001 0.000000 -0.000000 -0.000001 0.000001 0.000000 -0.000001 0.000000 0.000000 -0.000001 0.000000 -0.000000 -0.000001 0.000001 0.000001 0.000000 -0.000000 0.000001 0.000000 -0.000000 -0.000000 -0.000001 0.000000 
-2.196790 81.245651 10.156267 5.167376 43.568482 -4.443179 0.000000 -0.000000 -0.000000 -25.862341 7.422998 8.719073 20.756253 -35.567336 -4.902870 -7.275457 -4.612480 0.192152 0.000000 -0.000000 0.000000 0.000000 -0.000000 0.000000 -0.000000 0.000001 -0.000000 -13.880960 12.468108 1.986532 22.134674 9.137214 0.796574 -11.856452 0.653982 -1.681500 0.000000 0.000001 -0.000000 0.000000 0.000001 -0.000000 0.000000 -0.000003 0.000000 7.373209 0.338876 -2.913039 1.021570 0.402665 1.586733 1.011855 0.599507 1.577680 -1.918163 23.066293 -7.797576 -9.375054 17.512233 -0.237608 0.000000 0.000000 0.000000 0.000000 0.000000 0.000000 0.000000 0.000000 0.000000 -0.156235 -7.215456 0.446555 -58.915026 18.233870 -24.765130 9.439968 -73.554423 11.301877 -49.997497 13.434661 4.113519 17.538775 -5.734920 -12.929132 10.858186 26.148566 8.645788 0.000002 -0.000000 -0.000000 13.990056 1.425097 -54.986404 0.369508 1.160575 -65.353046 0.000000 -0.000001 0.000005 7.442278 1.212597 -63.722626 1.805088 1.477112 -64.464937 0.000001 0.000000 -0.000002 8.572861 2.194776 -75.061306 -0.208420 1.006880 -57.751626 -0.000002 -0.000001 -0.000001 10.016872 13.637174 -84.740572 0.876327 0.062112 -64.559010 -0.000000 -0.000001 0.000003 0.000001 0.000002 -0.000001 4.849877 8.905624 6.467971 7.348085 10.428513 62.949619 10.867234 23.018808 -5.002920 -0.408414 6.356074 5.557316 15.788517 -2.734472 -17.205861 -2.064784 -31.304786 7.379070 0.000000 0.000002 0.000001 2.372187 -3.658613 14.937728 -2.142230 -2.475759 25.392311 -0.000001 0.000000 0.000004 -1.976003 -5.710176 20.185564 0.284470 -5.106717 33.706997 -0.000001 0.000000 -0.000002 -3.266475 -8.564918 18.291825 4.034680 -4.065985 39.981759 -0.000002 -0.000000 0.000000 -6.472829 -11.350824 29.784157 10.721339 -2.561129 41.541935 -0.000000 -0.000001 0.000000 -0.000001 -0.000000 0.000000 -0.000000 -0.000002 -0.000000 -0.000000 -0.000002 -0.000000 -0.000000 -0.000002 -0.000000 -0.000000 -0.000002 -0.000000 -0.000000 -0.000002 -0.000000 -0.000001 -0.000000 -0.000000 -0.000000 -0.000002 -0.000000 -0.000000 -0.000002 -0.000000 -0.000001 -0.000000 -0.000000 0.000000 0.000000 -0.000000 0.000000 0.000000 -0.000000 0.000000 -0.000000 -0.000000 
